<svg width="800" height="600" viewBox="0 0 800 600" fill="none" xmlns="http://www.w3.org/2000/svg">
  <!-- Background Elements -->
  <circle cx="400" cy="300" r="250" fill="#EFF6FF" />
  <circle cx="400" cy="300" r="200" fill="#DBEAFE" />
  <circle cx="400" cy="300" r="150" fill="#BFDBFE" />

  <!-- Document Stack -->
  <g transform="translate(300, 200)">
    <!-- Base Document -->
    <rect x="0" y="0" width="200" height="250" rx="8" fill="white" stroke="#E5E7EB" stroke-width="2" />
    <rect x="20" y="20" width="160" height="20" rx="4" fill="#F3F4F6" />
    <rect x="20" y="50" width="120" height="20" rx="4" fill="#F3F4F6" />
    <rect x="20" y="80" width="140" height="20" rx="4" fill="#F3F4F6" />
    <rect x="20" y="110" width="100" height="20" rx="4" fill="#F3F4F6" />
    <rect x="20" y="140" width="160" height="20" rx="4" fill="#F3F4F6" />
    <rect x="20" y="170" width="130" height="20" rx="4" fill="#F3F4F6" />
    <rect x="20" y="200" width="150" height="20" rx="4" fill="#F3F4F6" />

    <!-- Top Document (Slightly Offset) -->
    <g transform="translate(-10, -10)">
      <rect x="0" y="0" width="200" height="250" rx="8" fill="white" stroke="#E5E7EB" stroke-width="2" />
      <rect x="20" y="20" width="160" height="20" rx="4" fill="#F3F4F6" />
      <rect x="20" y="50" width="120" height="20" rx="4" fill="#F3F4F6" />
      <rect x="20" y="80" width="140" height="20" rx="4" fill="#F3F4F6" />
      <rect x="20" y="110" width="100" height="20" rx="4" fill="#F3F4F6" />
      <rect x="20" y="140" width="160" height="20" rx="4" fill="#F3F4F6" />
      <rect x="20" y="170" width="130" height="20" rx="4" fill="#F3F4F6" />
      <rect x="20" y="200" width="150" height="20" rx="4" fill="#F3F4F6" />
    </g>

    <!-- Checkmark Badge -->
    <g transform="translate(160, -20)">
      <circle cx="0" cy="0" r="20" fill="#10B981" />
      <path d="M-6 0L-2 4L6 -4" stroke="white" stroke-width="2" stroke-linecap="round" stroke-linejoin="round" />
    </g>
  </g>

  <!-- Floating Elements -->
  <g transform="translate(150, 150)">
    <!-- Calculator -->
    <rect x="0" y="0" width="60" height="80" rx="8" fill="#3B82F6" />
    <rect x="5" y="5" width="50" height="20" rx="2" fill="white" />
    <rect x="10" y="30" width="15" height="15" rx="2" fill="white" />
    <rect x="35" y="30" width="15" height="15" rx="2" fill="white" />
    <rect x="10" y="55" width="15" height="15" rx="2" fill="white" />
    <rect x="35" y="55" width="15" height="15" rx="2" fill="white" />
  </g>

  <g transform="translate(500, 250)">
    <!-- Shield -->
    <path d="M0 -40L30 0L0 40L-30 0Z" fill="#3B82F6" />
    <path d="M0 -30L20 0L0 30L-20 0Z" fill="white" />
    <path d="M0 -20L10 0L0 20L-10 0Z" fill="#3B82F6" />
  </g>

  <g transform="translate(200, 400)">
    <!-- Graph -->
    <polyline points="0,40 20,20 40,30 60,10 80,25" stroke="#3B82F6" stroke-width="3" fill="none" />
    <circle cx="0" cy="40" r="4" fill="#3B82F6" />
    <circle cx="20" cy="20" r="4" fill="#3B82F6" />
    <circle cx="40" cy="30" r="4" fill="#3B82F6" />
    <circle cx="60" cy="10" r="4" fill="#3B82F6" />
    <circle cx="80" cy="25" r="4" fill="#3B82F6" />
  </g>

  <!-- Decorative Elements -->
  <g transform="translate(600, 150)">
    <circle cx="0" cy="0" r="30" fill="#DBEAFE" />
    <circle cx="0" cy="0" r="20" fill="#BFDBFE" />
    <circle cx="0" cy="0" r="10" fill="#3B82F6" />
  </g>

  <g transform="translate(100, 200)">
    <circle cx="0" cy="0" r="20" fill="#DBEAFE" />
    <circle cx="0" cy="0" r="10" fill="#BFDBFE" />
  </g>

  <g transform="translate(650, 400)">
    <circle cx="0" cy="0" r="25" fill="#DBEAFE" />
    <circle cx="0" cy="0" r="15" fill="#BFDBFE" />
    <circle cx="0" cy="0" r="5" fill="#3B82F6" />
  </g>
</svg> 